<?xml version="1.0" encoding="utf-8"?>
<!-- Generator: Adobe Illustrator 23.0.2, SVG Export Plug-In . SVG Version: 6.00 Build 0)  -->
<svg version="1.1" id="Layer_1" xmlns="http://www.w3.org/2000/svg" xmlns:xlink="http://www.w3.org/1999/xlink" x="0px" y="0px"
	 viewBox="0 0 30.6 46" style="enable-background:new 0 0 30.6 46;" xml:space="preserve">
<style type="text/css">
	.st0{fill:#FF9933;}
	.st1{fill:#FF7F00;}
	.st2{fill:#A55200;}
</style>
<g>
	<path class="st0" d="M0.7,6.1l12,16.9h15.6c1.3,0,2.3-1,2.3-2.3l0,0c0-0.2,0-0.4-0.1-0.6L26.1,2.5C25.8,1,24.5,0,23,0l0,0H3.9
		c-1,0-2,0.4-2.7,1.1S0,2.8,0,3.9l0,0C0,4.7,0.3,5.5,0.7,6.1z"/>
	<path class="st1" d="M21.3,46L21.3,46c0.5,0,0.9-0.2,1.2-0.5c0.3-0.3,0.5-0.8,0.5-1.2V23H7c-1.1,0-1.9,0.9-1.9,1.9l0,0
		c0,0.4,0.1,0.8,0.4,1.2l14.4,19.3C20.2,45.7,20.7,46,21.3,46L21.3,46z"/>
	<polygon class="st2" points="12.8,23 23,25.6 23,23 	"/>
</g>
</svg>
